<svg id="Phone_Icon" data-name="Phone Icon" xmlns="http://www.w3.org/2000/svg" width="21.67" height="36.166" viewBox="0 0 21.67 36.166">
  <path id="Path_53" data-name="Path 53" d="M104.653-511.676a2.459,2.459,0,0,0-1.374,1.132,2.782,2.782,0,0,0-.184.693c-.092.658-.092,31.785,0,32.443a2.78,2.78,0,0,0,.184.693,2.621,2.621,0,0,0,.978.969l.361.191h18.491l.361-.191a2.694,2.694,0,0,0,.985-.969,3.642,3.642,0,0,0,.184-.764c.043-.361.064-5.3.05-14.425-.021-13.533-.021-13.88-.156-14.028a.588.588,0,0,0-.794,0c-.135.149-.135.481-.156,13.512l-.014,13.363H109.6l-.17.177a.453.453,0,0,0,0,.707l.17.177h13.964v.347a1.021,1.021,0,0,1-.567.941c-.234.12-.815.127-9.139.127s-8.906-.007-9.139-.127a1.021,1.021,0,0,1-.567-.941v-.347h1.686c1.6,0,1.693-.007,1.842-.141a.555.555,0,0,0,0-.778c-.149-.134-.241-.142-1.842-.142h-1.686v-30.894l.163-.241c.3-.446.468-.488,2.147-.488h1.495l.043.722a1.829,1.829,0,0,0,.241,1.04,1.44,1.44,0,0,0,.51.481l.312.163h9.593l.312-.163a1.44,1.44,0,0,0,.51-.481,1.829,1.829,0,0,0,.241-1.04l.043-.722h1.495c1.644,0,1.828.035,2.125.446.128.177.156.333.184,1.288.035,1,.05,1.1.191,1.245a.542.542,0,0,0,.751.007c.128-.127.156-.255.177-.821a5.64,5.64,0,0,0-.234-2.03,2.7,2.7,0,0,0-.985-.969l-.361-.191-9.139-.014C108.939-511.725,104.752-511.7,104.653-511.676Zm13.957,1.585a1.559,1.559,0,0,1-.085.672c-.12.12-9.2.12-9.324,0a1.559,1.559,0,0,1-.085-.672v-.587h9.494Z" transform="translate(-103.025 511.719)" fill="#e9e9e9"/>
  <path id="Path_54" data-name="Path 54" d="M244.21-360.755a.473.473,0,0,0-.014.722c.12.113.3.156.757.191a6.619,6.619,0,0,1,4.393,2.08,6.573,6.573,0,0,1,1.776,3.919c.064.623.113.835.219.955a.473.473,0,0,0,.722-.014c.2-.191.205-.29.106-1.167a7.588,7.588,0,0,0-2.285-4.648,7.616,7.616,0,0,0-4.436-2.144C244.592-360.967,244.4-360.953,244.21-360.755Z" transform="translate(-234.037 371.594)" fill="#e9e9e9"/>
  <path id="Path_55" data-name="Path 55" d="M154.489-350.851a6.179,6.179,0,0,0-1.7,1.188c-.7,1-.559,2.872.354,4.683a16.966,16.966,0,0,0,1.691,2.5,28.566,28.566,0,0,0,3.042,3.028c2.264,1.832,4.344,2.653,6.013,2.384.976-.156,1.273-.382,1.953-1.507.5-.828.587-1.2.382-1.641-.106-.212-.382-.432-1.62-1.259a19.237,19.237,0,0,0-1.762-1.089c-.509-.177-.92.028-1.4.686a4.328,4.328,0,0,1-.389.5,9.328,9.328,0,0,1-1.443-.955,19.365,19.365,0,0,1-2.073-2.1,8.561,8.561,0,0,1-.828-1.295,4.01,4.01,0,0,1,.46-.347c.509-.368.644-.531.743-.905.113-.4-.007-.644-1.111-2.292-1.075-1.606-1.2-1.726-1.769-1.726A1.312,1.312,0,0,0,154.489-350.851ZM156-348.573l.913,1.365-.467.354c-.906.672-1,1.047-.467,1.988a11.214,11.214,0,0,0,2.087,2.533,9.432,9.432,0,0,0,2.292,1.769c.814.424,1.2.311,1.832-.545l.354-.467,1.365.913c.75.5,1.365.934,1.365.955a6.815,6.815,0,0,1-.891,1.365,2.349,2.349,0,0,1-1.394.262c-1.7-.177-3.594-1.288-5.737-3.367-2.349-2.285-3.65-4.379-3.834-6.19a2.267,2.267,0,0,1,.276-1.422,7.579,7.579,0,0,1,1.337-.877A16.558,16.558,0,0,1,156-348.573Z" transform="translate(-148.845 362.37)" fill="#e9e9e9"/>
  <path id="Path_56" data-name="Path 56" d="M244.166-314.858a.551.551,0,0,0-.071.637,1,1,0,0,0,.792.283,3.788,3.788,0,0,1,1.4.446,4.149,4.149,0,0,1,1.125,1.1,3.6,3.6,0,0,1,.5,1.486c0,.573.205.863.594.863.318,0,.467-.226.467-.707a3.792,3.792,0,0,0-.439-1.769,3.656,3.656,0,0,0-.863-1.174,4.108,4.108,0,0,0-2.943-1.3C244.4-315,244.28-314.972,244.166-314.858Z" transform="translate(-234.033 328.917)" fill="#e9e9e9"/>
</svg>
