<svg xmlns="http://www.w3.org/2000/svg" xmlns:xlink="http://www.w3.org/1999/xlink" width="626" height="362" viewBox="0 0 626 362">
  <defs>
    <linearGradient id="linear-gradient" x1="0.5" x2="0.5" y2="1" gradientUnits="objectBoundingBox">
      <stop offset="0" stop-color="#ff6e4b"/>
      <stop offset="1" stop-color="#f2fcfe"/>
    </linearGradient>
  </defs>
  <g id="Group_9" data-name="Group 9" transform="translate(-934 -318)">
    <g id="Rectangle_1" data-name="Rectangle 1" transform="translate(988 318)" stroke="#fff" stroke-width="2">
      <path d="M25,0H505a25,25,0,0,1,25,25V337a0,0,0,0,1,0,0H0a0,0,0,0,1,0,0V25A25,25,0,0,1,25,0Z" stroke="none"/>
      <path d="M25,1H505a24,24,0,0,1,24,24V335a1,1,0,0,1-1,1H2a1,1,0,0,1-1-1V25A24,24,0,0,1,25,1Z" fill="none"/>
    </g>
    <path id="Rectangle_2" data-name="Rectangle 2" d="M0,0H626a0,0,0,0,1,0,0V14a14,14,0,0,1-14,14H14A14,14,0,0,1,0,14V0A0,0,0,0,1,0,0Z" transform="translate(934 652)" fill="#fff"/>
    <rect id="Rectangle_5" data-name="Rectangle 5" width="247" height="303" transform="translate(1253 336)" fill="url(#linear-gradient)"/>
    <rect id="Rectangle_6" data-name="Rectangle 6" width="31" height="8" transform="translate(1029 363)" fill="#fff"/>
    <rect id="Rectangle_19" data-name="Rectangle 19" width="31" height="8" transform="translate(1029 363)" fill="#fff"/>
    <g id="Group_2" data-name="Group 2">
      <rect id="Rectangle_4" data-name="Rectangle 4" width="247" height="303" transform="translate(1006 336)" fill="#2c2c2c"/>
      <g id="Group_1" data-name="Group 1">
        <rect id="Rectangle_7" data-name="Rectangle 7" width="31" height="8" transform="translate(1172 399)" fill="#404040"/>
        <rect id="Rectangle_8" data-name="Rectangle 8" width="52" height="8" transform="translate(1166 417)" fill="#404040"/>
        <rect id="Rectangle_9" data-name="Rectangle 9" width="31" height="8" transform="translate(1124 417)" fill="#fff"/>
        <rect id="Rectangle_10" data-name="Rectangle 10" width="31" height="8" transform="translate(1082 417)" fill="#ffc94d"/>
        <rect id="Rectangle_11" data-name="Rectangle 11" width="64" height="8" transform="translate(1097 399)" fill="#ffc94d"/>
        <rect id="Rectangle_12" data-name="Rectangle 12" width="45" height="8" transform="translate(1082 381)" fill="#ffc94d"/>
        <rect id="Rectangle_13" data-name="Rectangle 13" width="59" height="8" transform="translate(1071 363)" fill="#404040"/>
        <rect id="Rectangle_14" data-name="Rectangle 14" width="31" height="8" transform="translate(1040 381)" fill="#5d3f91"/>
        <rect id="Rectangle_15" data-name="Rectangle 15" width="46" height="8" transform="translate(1040 399)" fill="#5d3f91"/>
        <rect id="Rectangle_16" data-name="Rectangle 16" width="18" height="8" transform="translate(1138 381)" fill="#fff"/>
        <rect id="Rectangle_17" data-name="Rectangle 17" width="31" height="8" transform="translate(1167 381)" fill="#404040"/>
        <rect id="Rectangle_18" data-name="Rectangle 18" width="44" height="8" transform="translate(1027 417)" fill="#ff6e4b"/>
        <rect id="Rectangle_20" data-name="Rectangle 20" width="31" height="8" transform="translate(1029 363)" fill="#ff6e4b"/>
        <rect id="Rectangle_21" data-name="Rectangle 21" width="31" height="8" transform="translate(1027 453)" fill="#ff6e4b"/>
        <rect id="Rectangle_22" data-name="Rectangle 22" width="31" height="8" transform="translate(1060 435)" fill="#ffc94d"/>
        <rect id="Rectangle_23" data-name="Rectangle 23" width="22" height="8" transform="translate(1027 435)" fill="#ff6e4b"/>
        <rect id="Rectangle_24" data-name="Rectangle 24" width="51" height="8" transform="translate(1069 453)" fill="#404040"/>
      </g>
    </g>
    <path id="Rectangle_25" data-name="Rectangle 25" d="M0,0H203a10,10,0,0,1,10,10V253a0,0,0,0,1,0,0H0a0,0,0,0,1,0,0V0A0,0,0,0,1,0,0Z" transform="translate(1253 386)" fill="#fff"/>
    <rect id="Rectangle_27" data-name="Rectangle 27" width="213" height="15" transform="translate(1253 398)" fill="#e3e3e3"/>
    <rect id="Rectangle_28" data-name="Rectangle 28" width="192" height="7" rx="3.5" transform="translate(1256 402)" fill="silver"/>
    <g id="Group_4" data-name="Group 4" transform="translate(0 0.146)">
      <circle id="Ellipse_1" data-name="Ellipse 1" cx="1.223" cy="1.223" r="1.223" transform="translate(1456 400)" fill="#707070"/>
      <circle id="Ellipse_2" data-name="Ellipse 2" cx="1.223" cy="1.223" r="1.223" transform="translate(1456 403.867)" fill="#707070"/>
      <circle id="Ellipse_3" data-name="Ellipse 3" cx="1.223" cy="1.223" r="1.223" transform="translate(1456 407.733)" fill="#707070"/>
    </g>
    <rect id="Rectangle_29" data-name="Rectangle 29" width="213" height="226" transform="translate(1253 413)" fill="#ffc94d"/>
    <path id="Path_3" data-name="Path 3" d="M0,0H213V110H0Z" transform="translate(1253 471)" fill="#fff"/>
    <circle id="Ellipse_4" data-name="Ellipse 4" cx="2.5" cy="2.5" r="2.5" transform="translate(1455 390)" fill="#fa7b7b"/>
    <circle id="Ellipse_5" data-name="Ellipse 5" cx="2.5" cy="2.5" r="2.5" transform="translate(1446 390)" fill="#827aff"/>
    <circle id="Ellipse_6" data-name="Ellipse 6" cx="2.5" cy="2.5" r="2.5" transform="translate(1437 390)" fill="#88ff90"/>
    <g id="Group_8" data-name="Group 8" transform="translate(0 5)">
      <g id="Rectangle_32" data-name="Rectangle 32" transform="translate(1331 476)" fill="#b9b9b9" stroke="#b9b9b9" stroke-width="1">
        <rect width="65" height="7" stroke="none"/>
        <rect x="0.5" y="0.5" width="64" height="6" fill="none"/>
      </g>
      <g id="Rectangle_33" data-name="Rectangle 33" transform="translate(1319 489)" fill="#b9b9b9" stroke="#b9b9b9" stroke-width="1">
        <rect width="38" height="7" stroke="none"/>
        <rect x="0.5" y="0.5" width="37" height="6" fill="none"/>
      </g>
      <g id="Rectangle_34" data-name="Rectangle 34" transform="translate(1321 502)" fill="#b9b9b9" stroke="#b9b9b9" stroke-width="1">
        <rect width="24" height="7" stroke="none"/>
        <rect x="0.5" y="0.5" width="23" height="6" fill="none"/>
      </g>
      <g id="Rectangle_35" data-name="Rectangle 35" transform="translate(1363 489)" fill="#b9b9b9" stroke="#b9b9b9" stroke-width="1">
        <rect width="49" height="7" stroke="none"/>
        <rect x="0.5" y="0.5" width="48" height="6" fill="none"/>
      </g>
      <g id="Rectangle_36" data-name="Rectangle 36" transform="translate(1351 502)" fill="#b9b9b9" stroke="#b9b9b9" stroke-width="1">
        <rect width="24" height="7" stroke="none"/>
        <rect x="0.5" y="0.5" width="23" height="6" fill="none"/>
      </g>
      <g id="Rectangle_37" data-name="Rectangle 37" transform="translate(1382 502)" fill="#b9b9b9" stroke="#b9b9b9" stroke-width="1">
        <rect width="24" height="7" stroke="none"/>
        <rect x="0.5" y="0.5" width="23" height="6" fill="none"/>
      </g>
    </g>
    <g id="Group_7" data-name="Group 7">
      <rect id="Rectangle_38" data-name="Rectangle 38" width="51" height="46" transform="translate(1264 526)" fill="#ff6e4b"/>
      <rect id="Rectangle_39" data-name="Rectangle 39" width="51" height="12" transform="translate(1264 553)" fill="#7e7a7a"/>
    </g>
    <g id="Group_5" data-name="Group 5" transform="translate(-4 5)">
      <rect id="Rectangle_40" data-name="Rectangle 40" width="51" height="46" transform="translate(1338 521)" fill="#5d3f91"/>
      <rect id="Rectangle_41" data-name="Rectangle 41" width="51" height="12" transform="translate(1338 548)" fill="#7e7a7a"/>
    </g>
    <g id="Group_6" data-name="Group 6" transform="translate(2 5)">
      <rect id="Rectangle_42" data-name="Rectangle 42" width="51" height="46" transform="translate(1402 521)" fill="#ffc94d"/>
      <rect id="Rectangle_43" data-name="Rectangle 43" width="51" height="12" transform="translate(1402 548)" fill="#7e7a7a"/>
    </g>
  </g>
</svg>
