<svg xmlns="http://www.w3.org/2000/svg" width="85" height="82.792" viewBox="0 0 85 82.792">
  <g id="Computer_Icon" data-name="Computer Icon" transform="translate(0.005 511.918)">
    <path id="Path_1" data-name="Path 1" d="M4.063-511.737a5.907,5.907,0,0,0-3.885,3.889c-.133.583-.183,8.994-.183,30.74,0,32.83-.066,30.724.979,32.279A6.147,6.147,0,0,0,3.648-442.8c.714.292,1.361.308,13.414.356l12.65.049v4.148l-2.357.081c-2.706.081-3.553.34-4.665,1.394-.979.924-1.278,1.945-1.278,4.294,0,1.685.05,2.042.315,2.447.581.859.8.891,4.615.907,3.32,0,3.553-.016,3.868-.324a1.265,1.265,0,0,0-.017-1.718c-.315-.275-.681-.308-3.32-.357l-2.972-.065v-1.28c0-1.442.216-2.026.946-2.512.448-.292,1.079-.308,17.4-.357,15.888-.032,16.967-.016,17.5.243.979.5,1.262,1.021,1.328,2.576l.05,1.361H49.186c-7.919,0-12.119.065-12.451.162a1.428,1.428,0,0,0-.88,1.2,1.535,1.535,0,0,0,.349.648l.332.421h25.7l.564-.535c.714-.648.863-1.426.73-3.614-.133-2.171-.664-3.192-2.208-4.165-.83-.535-2.158-.762-4.333-.762h-1.71v-4.213H67.2c7.5,0,12.3-.065,12.982-.178a5.427,5.427,0,0,0,4.316-3.322c.332-.875.332-1.183.332-18.6,0-17.549,0-17.712-.332-18a1.316,1.316,0,0,0-1.71.065l-.365.357-.05,13.6-.033,13.612H43.492V-495.4H82.323l.05,3.338.05,3.338.465.389a1.017,1.017,0,0,0,1.561,0l.465-.389.066-9.042c.05-9.544.017-10.241-.7-11.408a5.382,5.382,0,0,0-3.354-2.528c-.681-.178-7.471-.227-38.516-.211C18.54-511.9,4.478-511.834,4.063-511.737Zm77.015,2.787c1.278.94,1.262.891,1.262,6.287v4.829H2.652v-4.78c0-5.121.017-5.266.863-6.028,1.013-.924-2.025-.859,39.163-.81l37.785.032ZM41-475.147v20.256H2.652V-495.4H41Zm41.338,25.36c0,2.35-.033,2.771-.332,3.322a2.762,2.762,0,0,1-2.092,1.458c-.548.113-12.85.162-38,.13-34.3-.049-37.221-.065-37.686-.324a3.707,3.707,0,0,1-1.561-1.637,16.759,16.759,0,0,1-.183-3.047v-2.576H82.34Zm-29.551,9.48v2.107H32.2v-4.213H52.789Z" fill="#5f85db"/>
    <path id="Path_2" data-name="Path 2" d="M35.591-482.6a3.509,3.509,0,0,0-1.891,3.324c0,2.4,1.995,4.064,4.093,3.39,2.63-.856,3.118-4.755.813-6.467A3.132,3.132,0,0,0,35.591-482.6Zm2.01,2.518c.665.74-.044,2.123-.961,1.859a1.068,1.068,0,0,1-.606-.576C35.5-479.936,36.788-480.989,37.6-480.084Z" transform="translate(-28.724 -24.262)" fill="#5f85db"/>
    <path id="Path_3" data-name="Path 3" d="M91.457-482.6a3.777,3.777,0,0,0-.148,6.483,2.96,2.96,0,0,0,3.665-.625,3.848,3.848,0,0,0-.5-5.611A3.129,3.129,0,0,0,91.457-482.6Zm2.01,2.518c.665.74-.044,2.123-.961,1.859a1.068,1.068,0,0,1-.606-.576C91.369-479.936,92.654-480.989,93.467-480.084Z" transform="translate(-74.53 -24.262)" fill="#5f85db"/>
    <path id="Path_4" data-name="Path 4" d="M147.457-482.6a3.777,3.777,0,0,0-.148,6.483,2.96,2.96,0,0,0,3.665-.625,3.848,3.848,0,0,0-.5-5.611A3.129,3.129,0,0,0,147.457-482.6Zm1.995,2.5a1.16,1.16,0,0,1-.1,1.645c-.946.823-2.113-.477-1.374-1.53A.909.909,0,0,1,149.452-480.1Z" transform="translate(-121.138 -24.262)" fill="#5f85db"/>
    <path id="Path_5" data-name="Path 5" d="M40.241-394.8a1.315,1.315,0,0,0,.1,2.024c.31.23.8.263,3.458.214,2.808-.049,3.133-.082,3.414-.362a1.284,1.284,0,0,0-.03-1.711c-.325-.346-.458-.362-3.517-.362C41.349-395,40.418-394.951,40.241-394.8Z" transform="translate(-33.935 -97.981)" fill="#5f85db"/>
    <path id="Path_6" data-name="Path 6" d="M104.207-394.8a1.305,1.305,0,0,0,.1,2.024c.562.411,3.473.3,3.916-.148a1.284,1.284,0,0,0-.03-1.711c-.31-.329-.5-.362-2.039-.362A4.9,4.9,0,0,0,104.207-394.8Z" transform="translate(-86.423 -97.981)" fill="#5f85db"/>
    <path id="Path_7" data-name="Path 7" d="M72.421-368.685a1.3,1.3,0,0,0-.148,2.106,11.1,11.1,0,0,0,2.5.165c2.039,0,2.261-.033,2.527-.329a1.42,1.42,0,0,0-.015-1.744c-.266-.263-.591-.313-2.409-.362A6.737,6.737,0,0,0,72.421-368.685Z" transform="translate(-61.195 -119.887)" fill="#5f85db"/>
    <path id="Path_8" data-name="Path 8" d="M120.315-368.618a1.289,1.289,0,0,0-.384,2.024c.325.28.695.3,5.172.3h4.847l.31-.378a1.272,1.272,0,0,0,.044-1.613l-.281-.395-4.714-.033C122.723-368.733,120.477-368.683,120.315-368.618Z" transform="translate(-99.369 -120.005)" fill="#5f85db"/>
    <path id="Path_9" data-name="Path 9" d="M95.982-340.7a1.287,1.287,0,0,0,0,1.728c.281.329.473.362,1.729.362,1.315,0,1.433-.033,1.7-.395a1.383,1.383,0,0,0-.015-1.662c-.251-.28-.488-.329-1.685-.329C96.588-341,96.263-340.951,95.982-340.7Z" transform="translate(-79.677 -143.234)" fill="#5f85db"/>
    <path id="Path_10" data-name="Path 10" d="M130.982-340.7a1.287,1.287,0,0,0,0,1.728c.31.346.429.362,3.428.362,3.088,0,3.118,0,3.4-.395a1.383,1.383,0,0,0-.015-1.662c-.281-.313-.488-.329-3.384-.329C131.633-341,131.293-340.967,130.982-340.7Z" transform="translate(-108.705 -143.234)" fill="#5f85db"/>
    <path id="Path_11" data-name="Path 11" d="M190-340.671a1.391,1.391,0,0,0,.059,1.695c.3.329.488.362,2.246.411a16.972,16.972,0,0,0,2.29-.033,1.286,1.286,0,0,0,.65-2.04c-.3-.346-.429-.362-2.645-.362C190.446-341,190.254-340.967,190-340.671Z" transform="translate(-157.96 -143.234)" fill="#5f85db"/>
    <path id="Path_12" data-name="Path 12" d="M40.281-306.77a1.317,1.317,0,0,0,.118,2.057,8.434,8.434,0,0,0,2.113.181c1.552,0,1.788-.033,2.143-.346a1.046,1.046,0,0,0,.384-.889,1.046,1.046,0,0,0-.384-.889c-.355-.313-.591-.346-2.261-.346A5.125,5.125,0,0,0,40.281-306.77Z" transform="translate(-33.961 -171.727)" fill="#5f85db"/>
    <path id="Path_13" data-name="Path 13" d="M82.281-306.77a1.317,1.317,0,0,0,.118,2.057,42.552,42.552,0,0,0,6.251.181c5.733,0,5.9-.016,6.28-.346a1.046,1.046,0,0,0,.384-.889,1.046,1.046,0,0,0-.384-.889c-.384-.329-.547-.346-6.4-.346C83.818-306.984,82.474-306.951,82.281-306.77Z" transform="translate(-67.938 -171.727)" fill="#5f85db"/>
    <path id="Path_14" data-name="Path 14" d="M72.571-280.809a1.316,1.316,0,0,0-.576,2.024c.266.313.443.329,6.162.329,5.689,0,5.9-.016,6.177-.329a1.235,1.235,0,0,0-.458-1.958C83.417-280.924,73.324-280.973,72.571-280.809Z" transform="translate(-61.137 -193.592)" fill="#5f85db"/>
    <path id="Path_15" data-name="Path 15" d="M166.377-280.774a1.316,1.316,0,0,0-.443,1.975c.236.3.458.329,1.8.329s1.566-.049,1.818-.329a1.235,1.235,0,0,0-.458-1.958A5.844,5.844,0,0,0,166.377-280.774Z" transform="translate(-137.986 -193.578)" fill="#5f85db"/>
    <path id="Path_16" data-name="Path 16" d="M40.218-243.8a1.365,1.365,0,0,0-.34,1.464c.325.74.68.806,3.945.773,2.763-.049,3.088-.082,3.369-.362a1.362,1.362,0,0,0-.015-1.744c-.31-.313-.5-.329-3.517-.329C41.341-244,40.4-243.951,40.218-243.8Z" transform="translate(-33.913 -224.523)" fill="#5f85db"/>
    <path id="Path_17" data-name="Path 17" d="M104.218-243.8a1.365,1.365,0,0,0-.34,1.464c.3.675.768.823,2.468.773,1.315-.049,1.64-.1,1.891-.362a1.284,1.284,0,0,0-.03-1.711c-.31-.329-.5-.362-2.039-.362A4.9,4.9,0,0,0,104.218-243.8Z" transform="translate(-86.434 -224.523)" fill="#5f85db"/>
    <path id="Path_18" data-name="Path 18" d="M72.153-217.586a1.216,1.216,0,0,0-.1,1.777c.266.3.488.329,2.556.329s2.29-.033,2.586-.329a1.362,1.362,0,0,0,.015-1.744c-.266-.28-.591-.313-2.5-.362C72.611-217.965,72.523-217.965,72.153-217.586Z" transform="translate(-61.119 -246.364)" fill="#5f85db"/>
    <path id="Path_19" data-name="Path 19" d="M120.153-217.722a1.216,1.216,0,0,0-.1,1.777c.281.313.488.329,5.142.329h4.862l.31-.378a1.272,1.272,0,0,0,.044-1.613l-.281-.395-4.8-.049-4.8-.049Z" transform="translate(-99.472 -246.228)" fill="#5f85db"/>
    <path id="Path_20" data-name="Path 20" d="M95.982-189.7a1.287,1.287,0,0,0,0,1.728c.281.329.473.362,1.729.362,1.315,0,1.433-.033,1.7-.395a1.383,1.383,0,0,0-.015-1.662c-.251-.28-.488-.329-1.685-.329C96.588-190,96.263-189.951,95.982-189.7Z" transform="translate(-79.677 -269.776)" fill="#5f85db"/>
    <path id="Path_21" data-name="Path 21" d="M131-189.671a1.391,1.391,0,0,0,.059,1.695c.3.346.473.362,2.941.411,2.911.066,3.458,0,3.886-.477a1.336,1.336,0,0,0-.015-1.629c-.281-.313-.488-.329-3.443-.329C131.446-190,131.254-189.984,131-189.671Z" transform="translate(-108.783 -269.777)" fill="#5f85db"/>
    <path id="Path_22" data-name="Path 22" d="M190-189.671a1.391,1.391,0,0,0,.059,1.695c.281.329.5.362,2.113.411,2.069.066,2.689-.033,3.088-.477a1.336,1.336,0,0,0-.015-1.629c-.266-.3-.488-.329-2.63-.329C190.446-190,190.254-189.967,190-189.671Z" transform="translate(-157.96 -269.777)" fill="#5f85db"/>
    <path id="Path_23" data-name="Path 23" d="M288.735-394.687a3.044,3.044,0,0,0-1.522,2.156c-.192.922-.207,20.042-.03,20.947a3.436,3.436,0,0,0,1.419,2.123l.591.379,11.275.049c7.64.033,11.467-.016,11.866-.132a3.688,3.688,0,0,0,1.877-1.711c.236-.461.251-1.448.251-11.123,0-10.531,0-10.613-.31-11.271a2.651,2.651,0,0,0-1.433-1.481c-.473-.214-2.01-.247-11.955-.247C289.932-395,289.311-394.984,288.735-394.687Zm23.436,2.468c.177.395.207,13.723.03,13.641-.074-.033-.931-1.086-1.936-2.353-2.542-3.225-2.7-3.373-3.591-3.373-.724,0-.739.016-2.32,1.728a23.834,23.834,0,0,1-1.67,1.728c-.03,0-.916-1.086-1.965-2.4s-2.069-2.534-2.261-2.715a1.817,1.817,0,0,0-1.951-.049c-.207.148-1.921,1.991-3.8,4.081l-3.443,3.8v-6.878c0-4.426.059-6.993.148-7.207.148-.313.443-.313,11.378-.313S312.024-392.532,312.171-392.219Zm-12.043,11.946c3.428,4.377,3.532,4.459,4.418,3.686a1.237,1.237,0,0,0-.015-1.794l-.384-.527,1.256-1.4,1.256-1.4,2.822,3.538,2.837,3.538v1.218a3.283,3.283,0,0,1-.236,1.58l-.222.362H289.725l-.222-.362a3.132,3.132,0,0,1-.236-1.53v-1.152l4.093-4.558c3.147-3.5,4.138-4.525,4.271-4.36C297.719-383.334,298.843-381.9,300.128-380.273Z" transform="translate(-235.303 -98.103)" fill="#5f85db"/>
    <path id="Path_24" data-name="Path 24" d="M288.316-221.671a1.42,1.42,0,0,0,.015,1.744c.3.3.591.313,4.271.313s3.975-.016,4.271-.313a1.42,1.42,0,0,0,.015-1.744c-.281-.313-.488-.329-4.285-.329S288.6-221.984,288.316-221.671Z" transform="translate(-239.488 -242.959)" fill="#5f85db"/>
    <path id="Path_25" data-name="Path 25" d="M363.316-221.671a1.42,1.42,0,0,0,.015,1.744c.3.3.635.313,7.743.313s7.448-.016,7.743-.313a1.42,1.42,0,0,0,.015-1.744c-.281-.313-.488-.329-7.758-.329S363.6-221.984,363.316-221.671Z" transform="translate(-300.043 -242.959)" fill="#5f85db"/>
    <path id="Path_26" data-name="Path 26" d="M288.316-192.671a1.42,1.42,0,0,0,.015,1.744c.3.3.591.313,4.271.313s3.975-.016,4.271-.313a1.42,1.42,0,0,0,.015-1.744c-.281-.313-.488-.329-4.285-.329S288.6-192.984,288.316-192.671Z" transform="translate(-239.488 -267.262)" fill="#5f85db"/>
    <path id="Path_27" data-name="Path 27" d="M363.316-192.671a1.42,1.42,0,0,0,.015,1.744c.3.3.65.313,7.773.313h7.462l.281-.395a1.382,1.382,0,0,0-.015-1.662c-.281-.313-.488-.329-7.758-.329S363.6-192.984,363.316-192.671Z" transform="translate(-300.043 -267.262)" fill="#5f85db"/>
  </g>
</svg>
