<svg xmlns="http://www.w3.org/2000/svg" width="37.16" height="36.166" viewBox="0 0 37.16 36.166">
  <g id="Email_Icon" data-name="Email Icon" transform="translate(0 0)">
    <path id="Path_51" data-name="Path 51" d="M46.685-511.662a3.837,3.837,0,0,0-.614.262c-.131.085-1.483,1.194-2.99,2.466l-2.744,2.318H37.289c-3.539,0-3.621.014-4.375.643-.77.65-.77.622-.795,3.668l-.025,2.65-1.376,1.2a14.009,14.009,0,0,0-1.581,1.519l-.188.318-.025,3.477-.025,3.477.188.141a.61.61,0,0,0,.926-.141c.107-.163.123-.728.123-3.42,0-1.767.025-3.215.066-3.215.09.007,13.173,11.222,13.124,11.258-.025.021-2.99,1.435-6.595,3.138l-6.554,3.109-.041-4.516-.041-4.523-.2-.134a.711.711,0,0,0-.827.007c-.164.141-.164.2-.147,5.463l.025,5.314.188.3a2.652,2.652,0,0,0,1.229,1.053l.467.2,11.781.021,11.781.014.2-.17a.422.422,0,0,0,0-.714l-.2-.177H42.819c-11.109,0-11.592-.007-11.912-.134a1.225,1.225,0,0,1-.7-.664c-.041-.2,16.68-8.113,17.22-8.162.32-.028.467.014,1.065.29,1.122.509,16.254,7.689,16.319,7.738.131.113-.311.615-.672.777s-.393.155-3.9.155c-3.449,0-3.539,0-3.752.148a.443.443,0,0,0,.008.77c.213.148.262.148,3.949.127l3.736-.021.467-.2a2.652,2.652,0,0,0,1.229-1.053l.188-.3v-19.434l-.221-.353a11.28,11.28,0,0,0-1.573-1.519l-1.36-1.166v-.686c0-.6-.025-.714-.164-.834a.618.618,0,0,0-.877.042l-.188.177v5.753L56.107-490.4l-5.571,4.806-.516-.233c-1.868-.862-1.761-.827-2.515-.827s-.614-.049-2.515.827l-.516.233L38.9-490.4,33.332-495.2v-9.456l.2-.311a1.384,1.384,0,0,1,.533-.445c.32-.141.483-.141,13.444-.141H60.637l.336.17a1.59,1.59,0,0,1,.524.452c.156.247.18.382.18,1.131s.025.869.164,1.018a.559.559,0,0,0,.721.155c.336-.12.369-.254.328-1.385-.025-.827-.049-.982-.229-1.293a2.722,2.722,0,0,0-1.417-1.159c-.451-.141-.606-.148-3.523-.148H54.673l-2.826-2.389a23.934,23.934,0,0,0-3.236-2.551A3.331,3.331,0,0,0,46.685-511.662Zm1.376,1.053a23.114,23.114,0,0,1,2.515,2c1.212,1.039,2.22,1.908,2.236,1.936s-2.368.057-5.3.057-5.333-.007-5.333-.021c0-.1,4.416-3.795,4.678-3.922A1.517,1.517,0,0,1,48.062-510.609ZM32.1-497.2v.94l-.549-.473L31-497.218l.532-.459c.287-.254.541-.459.549-.459A8.129,8.129,0,0,1,32.1-497.2Zm31.352.459-.549.481v-1.908l.549.481.557.473Zm1.417,9.215v8.77l-.262-.141c-.147-.078-3.1-1.484-6.578-3.124s-6.324-3-6.349-3.018c-.049-.035,13.034-11.251,13.132-11.258C64.848-496.3,64.872-492.356,64.872-487.529Z" transform="translate(-28.9 511.758)" fill="#e9e9e9"/>
    <path id="Path_52" data-name="Path 52" d="M185.14-380.829a5.213,5.213,0,0,0-3.148,2.25,5.334,5.334,0,0,0,3.757,8.214c.8.106,1.09-.035,1.09-.516,0-.29-.262-.446-.891-.531a4.056,4.056,0,0,1-1.91-.736,4.258,4.258,0,0,1-1.358-5.525,5.046,5.046,0,0,1,1.8-1.776,4.243,4.243,0,0,1,5.023.828,3.8,3.8,0,0,1,1.153,2.6,5.1,5.1,0,0,1-.417,1.747c-.361.715-1.252.969-1.528.439a9.7,9.7,0,0,1-.106-2.512c0-2.207-.007-2.306-.141-2.441a.529.529,0,0,0-.771.042.7.7,0,0,0-.149.361c0,.1-.021.163-.05.149a2.022,2.022,0,0,0-1.295-.3,1.714,1.714,0,0,0-1.026.191,3.028,3.028,0,0,0-1.45,3.155c.34,2.038,2.236,3.106,3.665,2.066l.3-.219.333.347a1.43,1.43,0,0,0,1.316.5,2.378,2.378,0,0,0,1.981-1.6,4.686,4.686,0,0,0-.729-4.917,5.27,5.27,0,0,0-2.865-1.818A5.921,5.921,0,0,0,185.14-380.829Zm1.627,3.424c.863.446,1.047,2.151.333,3.092a1.124,1.124,0,0,1-1.181.488,2.061,2.061,0,0,1-1.068-2.568,1.8,1.8,0,0,1,.8-1A1.492,1.492,0,0,1,186.767-377.4Z" transform="translate(-167.807 390.214)" fill="#e9e9e9"/>
  </g>
</svg>
