<svg xmlns="http://www.w3.org/2000/svg" width="37.16" height="36.165" viewBox="0 0 37.16 36.165">
  <g id="Facebook_Icon" data-name="Facebook Icon" transform="translate(0 0)">
    <path id="Path_45" data-name="Path 45" d="M2.085-511.643A2.9,2.9,0,0,0,.24-510.129l-.2.424-.022,7.259L0-495.188.145-495A.5.5,0,0,0,.937-495c.153-.191.153-.212.153-7.237,0-4.931.022-7.131.08-7.329a1.885,1.885,0,0,1,1.053-1.019c.218-.057,4.78-.071,16.542-.064L35-510.625l.312.212a2.66,2.66,0,0,1,.538.524l.218.3.022,15.783c.015,12.345,0,15.861-.073,16.109a1.814,1.814,0,0,1-1.046,1.047c-.225.064-1.882.085-6.771.085H21.729l-.022-2.625-.022-2.625-.174-.134a.522.522,0,0,0-.719.028c-.16.163-.16.191-.16,2.759v2.6H16.564v-12.925l-.167-.149c-.167-.156-.2-.156-2.565-.156a22.238,22.238,0,0,1-2.5-.071c-.094-.057-.109-.354-.131-1.832-.022-1.7-.015-1.776.131-1.917s.225-.141,2.543-.141c2.259,0,2.4-.007,2.535-.134s.138-.3.174-2.455c.036-2.6.087-2.971.6-4.068a2.818,2.818,0,0,0,.254-.729.532.532,0,0,0-.814-.389,4.518,4.518,0,0,0-.814,1.7,11.38,11.38,0,0,0-.334,3.438v1.571l-2.158.021c-2.158.021-2.165.021-2.477.2a1.4,1.4,0,0,0-.509.5l-.2.318v2.016c0,1.96.007,2.023.167,2.313a1.529,1.529,0,0,0,.465.5l.3.2,2.209.021,2.2.021v12.161H8.994c-4.352,0-6.582-.028-6.764-.078a1.944,1.944,0,0,1-1.061-1.019c-.058-.2-.08-2.582-.08-7.825,0-7.527,0-7.542-.153-7.733a.494.494,0,0,0-.785.007L0-493.023l.015,7.754.022,7.754.2.424a3.067,3.067,0,0,0,1.388,1.358l.443.2H35.126l.472-.219a2.744,2.744,0,0,0,1.337-1.3l.225-.46V-509.7l-.225-.46a2.744,2.744,0,0,0-1.337-1.3l-.472-.219L18.744-511.7C9.379-511.7,2.245-511.679,2.085-511.643Z" transform="translate(0 511.7)" fill="#5f85db"/>
    <path id="Path_46" data-name="Path 46" d="M250.853-421.632a7.872,7.872,0,0,0-3.643,1.747c-.311.29-.361.6-.127.835s.516.184,1.082-.255a7.91,7.91,0,0,1,2.313-1.167,7.791,7.791,0,0,1,2.328-.191c1.67-.021,1.811-.014,1.9.1a19.556,19.556,0,0,1,.021,3.643c-.071.127-.163.134-1.189.134a4.332,4.332,0,0,0-2.384.424,3.655,3.655,0,0,0-1.33,1.464l-.226.481-.021,2c-.021,1.938-.021,2,.12,2.137s.219.149,2.483.149c2.243,0,2.342.007,2.476.141s.142.233.142,1.825c0,1.408-.021,1.7-.113,1.839-.106.156-.106.156-2.462.156h-2.356l-.149.163c-.156.163-.156.184-.156,3.007,0,2.752.007,2.851.141,2.985a.529.529,0,0,0,.771-.042c.142-.184.149-.269.149-2.618v-2.427l2.144-.021,2.151-.021.29-.2a1.514,1.514,0,0,0,.453-.5c.156-.29.163-.354.163-2.313v-2.016l-.191-.318a1.384,1.384,0,0,0-.5-.5c-.3-.177-.311-.177-2.405-.2l-2.108-.021v-1.4c0-1.627.057-1.868.538-2.405.524-.58.814-.665,2.4-.715,1.486-.042,1.641-.085,1.974-.516.29-.382.34-.806.311-2.759-.021-2-.035-2.045-.573-2.483l-.276-.219-1.811-.014A14.976,14.976,0,0,0,250.853-421.632Z" transform="translate(-228.843 428.084)" fill="#5f85db"/>
  </g>
</svg>
