<svg id="LinkedIn_Icon" data-name="LinkedIn Icon" xmlns="http://www.w3.org/2000/svg" width="37.16" height="36.166" viewBox="0 0 37.16 36.166">
  <path id="Path_47" data-name="Path 47" d="M2.159-511.941a3.024,3.024,0,0,0-2.22,2.189c-.152.635-.152,30.925,0,31.56A3.013,3.013,0,0,0,2.2-476c.653.148,31.776.148,32.429,0a3.013,3.013,0,0,0,2.256-2.2c.08-.36.1-2.4.1-12.97,0-9.179-.022-12.6-.08-12.723a.576.576,0,0,0-1,0c-.058.127-.08,3.537-.08,12.695,0,14.142.051,12.991-.58,13.6s.907.565-16.831.565-16.207.049-16.831-.565S1-476.71,1-493.973s-.051-15.773.58-16.38-.907-.565,16.831-.565,16.207-.049,16.831.565c.537.515.58.741.58,2.789v1.709l.189.191a.68.68,0,0,0,.326.184.671.671,0,0,0,.566-.332,21.094,21.094,0,0,0-.022-3.94,3.013,3.013,0,0,0-2.256-2.2C33.994-512.09,2.769-512.083,2.159-511.941Z" transform="translate(0.175 512.051)" fill="#5f85db"/>
  <path id="Path_48" data-name="Path 48" d="M79.564-434.706a3.191,3.191,0,0,0-2.023,1.578,2.977,2.977,0,0,0,1.422,4.018,3.011,3.011,0,0,0,2.745-.127,3.848,3.848,0,0,0,1.075-1.09,3.02,3.02,0,0,0,.106-2.71A2.974,2.974,0,0,0,79.564-434.706ZM81-433.454a1.845,1.845,0,0,1,.021,3.3,1.851,1.851,0,0,1-2.568-2.228,2.087,2.087,0,0,1,1.1-1.146A2.068,2.068,0,0,1,81-433.454Z" transform="translate(-71.588 440.222)" fill="#5f85db"/>
  <path id="Path_49" data-name="Path 49" d="M77.311-323.654a.549.549,0,0,0-.233.241c-.057.127-.078,2.526-.078,8.475v8.3l.184.191.191.184h2.6c2.519,0,2.6-.007,2.787-.149l.184-.142v-5.936c0-5.688-.007-5.936-.134-6.091a.576.576,0,0,0-.807-.007l-.156.163-.021,5.511-.014,5.518H78.132v-15.21H81.8l.021,1.068.021,1.068.205.177a.432.432,0,0,0,.424.134c.439-.085.467-.184.467-1.776,0-1.309-.014-1.45-.134-1.6l-.134-.17-2.611-.014A21.826,21.826,0,0,0,77.311-323.654Z" transform="translate(-71.374 336.991)" fill="#5f85db"/>
  <path id="Path_50" data-name="Path 50" d="M197.3-323.888a.53.53,0,0,0-.226.205c-.057.1-.078,2.717-.078,8.5v8.355l.177.17.17.177H202.6l.17-.177.177-.17v-4.1c0-4.252.021-4.577.3-5.129a2.738,2.738,0,0,1,1.238-1.111,2.681,2.681,0,0,1,1.988.042,2.425,2.425,0,0,1,1.231,1.295c.163.4.163.41.184,4.733l.021,4.33.184.149c.177.134.276.141,2.78.141h2.6l.191-.184.184-.191v-6.1c0-5.879-.007-6.12-.141-6.657a5.985,5.985,0,0,0-4.273-4.1,7.134,7.134,0,0,0-6.042,1.167l-.439.354v-.693c-.007-.715-.05-.842-.333-.99A47.354,47.354,0,0,0,197.3-323.888Zm4.507,2.377v1.316l.205.205c.361.361.686.233,1.047-.41a4.73,4.73,0,0,1,3.969-2.363,5.072,5.072,0,0,1,3.127.559,3.76,3.76,0,0,1,1.273.927,4.762,4.762,0,0,1,.828,1.04c.446.849.446.764.446,6.976v5.646h-3.672l-.028-3.983c-.021-3.778-.028-4-.17-4.407a3.54,3.54,0,0,0-4.945-2.122,4.054,4.054,0,0,0-1.641,1.514c-.424.792-.439.934-.439,5.157v3.842h-3.679v-15.21h3.679Z" transform="translate(-182.387 337.211)" fill="#5f85db"/>
</svg>
