<svg xmlns="http://www.w3.org/2000/svg" width="46" height="82.792" viewBox="0 0 46 82.792">
  <g id="Mobile_Icon" data-name="Mobile Icon" transform="translate(-92 511.922)">
    <path id="Path_28" data-name="Path 28" d="M95.885-511.757a5.322,5.322,0,0,0-3.38,3.219l-.435,1.051L92.028-483.5,92-459.505l.337.388a.84.84,0,0,0,1.416,0l.351-.388v-38.679H135.9v55.325H94.1v-4.821c-.014-3.7-.056-4.869-.2-5.08a1,1,0,0,0-1.753.081c-.126.259-.154,2.75-.126,9.739l.042,9.383.435,1.052a5.361,5.361,0,0,0,2.44,2.815l.912.5,18.779.048c16.268.032,18.891,0,19.592-.21a5.283,5.283,0,0,0,3.548-3.963c.2-.776.224-4.513.224-37.207s-.028-36.431-.224-37.207a5.3,5.3,0,0,0-3.52-3.963c-.687-.21-3.352-.243-19.326-.227C104.748-511.9,96.179-511.838,95.885-511.757Zm38.16,2.507a3.31,3.31,0,0,1,1.585,1.763c.224.55.266,1.068.266,3.753v3.122H94.1v-3.074c0-3.349.084-3.85.813-4.756a3.575,3.575,0,0,1,.94-.76c.533-.291,1.36-.307,19.115-.307C131.423-509.508,133.582-509.476,134.045-509.249Zm1.851,71.923c0,3.446-.112,3.963-.926,4.853-.926,1,.323.938-19.971.938s-19.045.065-19.971-.938c-.813-.89-.926-1.407-.926-4.853v-3.106H135.9Z" fill="#5f85db"/>
    <path id="Path_29" data-name="Path 29" d="M208.025-478.719a.962.962,0,0,0,.084,1.5c.323.3.492.323,1.968.323a5.113,5.113,0,0,0,2.01-.211.889.889,0,0,0,.225-1.546c-.323-.337-.408-.351-2.178-.351C208.488-479,208.278-478.972,208.025-478.719Z" transform="translate(-99.479 -28.295)" fill="#5f85db"/>
    <path id="Path_30" data-name="Path 30" d="M252.3-478.677a.99.99,0,0,0,.056,1.49c.351.281.548.3,3.3.3,2.839,0,2.937-.014,3.275-.323a.962.962,0,0,0,.084-1.5c-.267-.267-.464-.281-3.345-.281C252.656-479,252.6-479,252.3-478.677Z" transform="translate(-137.566 -28.295)" fill="#5f85db"/>
    <path id="Path_31" data-name="Path 31" d="M227.109-48.691a.977.977,0,0,0-.084,1.518c.267.267.464.281,3.795.281s3.528-.014,3.795-.281a.977.977,0,0,0-.084-1.518c-.351-.309-.422-.309-3.71-.309S227.46-49,227.109-48.691Z" transform="translate(-115.819 -386.998)" fill="#5f85db"/>
    <path id="Path_32" data-name="Path 32" d="M125.719-401.763a3.052,3.052,0,0,0-.841.717l-.378.492v14.111l.378.492c.785,1.026-.547.956,18.054.956s17.269.07,18.054-.956l.378-.492v-14.111l-.378-.492c-.757-1-.28-.956-10.793-.956h-9.461l-.294.323a.972.972,0,0,0,.449,1.644c.252.084,3.5.141,9.419.141h9.027v12.79h-1.766l-3.462-3.907a51.242,51.242,0,0,0-3.827-4.076,1.589,1.589,0,0,0-1.36-.014,21.776,21.776,0,0,0-2.074,1.911l-1.752,1.743-2.411-2.727a28.926,28.926,0,0,0-2.761-2.881,1.733,1.733,0,0,0-1.836.239c-.294.225-2.621,2.5-5.172,5.06l-4.626,4.652h-1.752v-12.79h4.051c4.163,0,4.794-.07,5.06-.562a1.1,1.1,0,0,0-.14-1.265c-.266-.267-.463-.281-4.794-.281C126.8-402,126.112-401.959,125.719-401.763Zm18.867,12.874c.547.59.687.675,1.121.632a.938.938,0,0,0,.911-1.223c-.14-.394-.1-.45,1.346-1.9a17.9,17.9,0,0,1,1.584-1.49c.042,0,1.079,1.124,2.3,2.488s2.369,2.67,2.565,2.881l.35.394H131.368l3.911-3.921,3.911-3.921,2.383,2.7C142.876-390.772,144.236-389.254,144.586-388.889Z" transform="translate(-27.932 -91.416)" fill="#5f85db"/>
    <path id="Path_33" data-name="Path 33" d="M133.422-256.635a.841.841,0,0,0,.042,1.279l.337.394h5.06c4.779,0,5.074-.014,5.355-.267a1.192,1.192,0,0,0,.042-1.532c-.239-.211-.815-.239-5.411-.239H133.7Z" transform="translate(-35.364 -213.526)" fill="#5f85db"/>
    <path id="Path_34" data-name="Path 34" d="M240.422-256.635a.841.841,0,0,0,.042,1.279l.337.394h4.413l.337-.394a.841.841,0,0,0,.042-1.279l-.281-.365H240.7Z" transform="translate(-127.377 -213.526)" fill="#5f85db"/>
    <path id="Path_35" data-name="Path 35" d="M303.99-256.719a1.094,1.094,0,0,0,.056,1.448c.3.309.351.309,4.947.309h4.652l.337-.394a.841.841,0,0,0,.042-1.279l-.281-.365h-4.75C304.412-257,304.229-256.986,303.99-256.719Z" transform="translate(-182.083 -213.526)" fill="#5f85db"/>
    <path id="Path_36" data-name="Path 36" d="M134.062-214.768a1.047,1.047,0,0,0-.056,1.785,19.944,19.944,0,0,0,3.556.155c3.12,0,3.3-.014,3.6-.281a1.018,1.018,0,0,0-.056-1.532c-.351-.281-.548-.3-3.556-.281A21.805,21.805,0,0,0,134.062-214.768Z" transform="translate(-35.695 -248.762)" fill="#5f85db"/>
    <path id="Path_37" data-name="Path 37" d="M205.718-214.83a.96.96,0,0,0-.253,1.616l.337.351h5.692c3.12,0,5.79-.042,5.917-.084a1.319,1.319,0,0,0,.422-.478,1.028,1.028,0,0,0-.436-1.391C216.976-215,206.2-215.027,205.718-214.83Z" transform="translate(-97.28 -248.728)" fill="#5f85db"/>
    <path id="Path_38" data-name="Path 38" d="M318.062-214.811a1.047,1.047,0,0,0-.056,1.785,22.4,22.4,0,0,0,3.809.155,22.4,22.4,0,0,0,3.809-.155,1.039,1.039,0,0,0-.1-1.8A44.107,44.107,0,0,0,318.062-214.811Z" transform="translate(-193.934 -248.719)" fill="#5f85db"/>
    <path id="Path_39" data-name="Path 39" d="M134.131-175.6a1.028,1.028,0,0,0-.3,1.7c.2.225.59.253,4.385.253,3.865,0,4.216-.014,4.512-.253a1.018,1.018,0,0,0,0-1.476c-.3-.309-.394-.309-4.273-.337A35.439,35.439,0,0,0,134.131-175.6Z" transform="translate(-35.68 -281.604)" fill="#5f85db"/>
    <path id="Path_40" data-name="Path 40" d="M221.75-175.634a.965.965,0,0,0-.337,1.574l.281.365h6.8c6.254,0,6.8-.014,7.069-.253a.893.893,0,0,0,.126-1.377l-.351-.408-6.662-.028C223.83-175.789,221.961-175.761,221.75-175.634Z" transform="translate(-111.045 -281.56)" fill="#5f85db"/>
    <path id="Path_41" data-name="Path 41" d="M343.837-175.749a.949.949,0,0,0-.422,1.588c.281.365.3.365,2.235.365s1.954,0,2.235-.365a1.343,1.343,0,0,0,.3-.562,1.236,1.236,0,0,0-.745-1.04A12.337,12.337,0,0,0,343.837-175.749Z" transform="translate(-215.942 -281.46)" fill="#5f85db"/>
    <path id="Path_42" data-name="Path 42" d="M133.976-132.845a1.056,1.056,0,0,0,.126,1.8,60.741,60.741,0,0,0,7,.155c6.521,0,6.662,0,7.027-.3a1.018,1.018,0,0,0,.056-1.532c-.3-.281-.45-.281-7.126-.281C136.548-132.986,134.145-132.944,133.976-132.845Z" transform="translate(-35.694 -317.381)" fill="#5f85db"/>
    <path id="Path_43" data-name="Path 43" d="M257.3-132.677a.99.99,0,0,0,.056,1.49c.351.281.548.3,3.387.3,2.389,0,3.092-.042,3.415-.211a1,1,0,0,0,0-1.757,21.526,21.526,0,0,0-3.415-.141C257.642-133,257.6-133,257.3-132.677Z" transform="translate(-141.865 -317.381)" fill="#5f85db"/>
    <path id="Path_44" data-name="Path 44" d="M325.976-132.835a1.056,1.056,0,0,0,.126,1.8,16.4,16.4,0,0,0,3.148.155,16.4,16.4,0,0,0,3.148-.155,1.039,1.039,0,0,0,.1-1.8A34.857,34.857,0,0,0,325.976-132.835Z" transform="translate(-200.808 -317.392)" fill="#5f85db"/>
  </g>
</svg>
